<svg width="20" height="20" viewBox="0 0 20 20" fill="none" xmlns="http://www.w3.org/2000/svg">
<path d="M6.17708 10C5.05208 10.0372 4.13194 10.5134 3.41667 11.4286H2.02083C1.45139 11.4286 0.972222 11.2779 0.583333 10.9766C0.194444 10.6752 0 10.2344 0 9.65402C0 7.02753 0.430556 5.71429 1.29167 5.71429C1.33333 5.71429 1.48438 5.79241 1.74479 5.94866C2.00521 6.10491 2.34375 6.26302 2.76042 6.42299C3.17708 6.58296 3.59028 6.66295 4 6.66295C4.46528 6.66295 4.92708 6.57738 5.38542 6.40625C5.35069 6.68155 5.33333 6.92708 5.33333 7.14286C5.33333 8.17708 5.61458 9.12946 6.17708 10ZM17.3333 17.1094C17.3333 18.0022 17.0799 18.7072 16.5729 19.2243C16.066 19.7414 15.3924 20 14.5521 20H5.44792C4.60764 20 3.93403 19.7414 3.42708 19.2243C2.92014 18.7072 2.66667 18.0022 2.66667 17.1094C2.66667 16.715 2.67882 16.33 2.70312 15.9542C2.72743 15.5785 2.77604 15.173 2.84896 14.7377C2.92188 14.3025 3.01389 13.8988 3.125 13.5268C3.23611 13.1548 3.38542 12.792 3.57292 12.4386C3.76042 12.0852 3.97569 11.7839 4.21875 11.5346C4.46181 11.2853 4.75868 11.0863 5.10938 10.9375C5.46007 10.7887 5.84722 10.7143 6.27083 10.7143C6.34028 10.7143 6.48958 10.7943 6.71875 10.9542C6.94792 11.1142 7.20139 11.2928 7.47917 11.49C7.75694 11.6871 8.12847 11.8657 8.59375 12.0257C9.05903 12.1856 9.52778 12.2656 10 12.2656C10.4722 12.2656 10.941 12.1856 11.4062 12.0257C11.8715 11.8657 12.2431 11.6871 12.5208 11.49C12.7986 11.2928 13.0521 11.1142 13.2812 10.9542C13.5104 10.7943 13.6597 10.7143 13.7292 10.7143C14.1528 10.7143 14.5399 10.7887 14.8906 10.9375C15.2413 11.0863 15.5382 11.2853 15.7812 11.5346C16.0243 11.7839 16.2396 12.0852 16.4271 12.4386C16.6146 12.792 16.7639 13.1548 16.875 13.5268C16.9861 13.8988 17.0781 14.3025 17.151 14.7377C17.224 15.173 17.2726 15.5785 17.2969 15.9542C17.3212 16.33 17.3333 16.715 17.3333 17.1094ZM6.66667 2.85714C6.66667 3.64583 6.40625 4.3192 5.88542 4.87723C5.36458 5.43527 4.73611 5.71429 4 5.71429C3.26389 5.71429 2.63542 5.43527 2.11458 4.87723C1.59375 4.3192 1.33333 3.64583 1.33333 2.85714C1.33333 2.06845 1.59375 1.39509 2.11458 0.837054C2.63542 0.279018 3.26389 0 4 0C4.73611 0 5.36458 0.279018 5.88542 0.837054C6.40625 1.39509 6.66667 2.06845 6.66667 2.85714ZM14 7.14286C14 8.32589 13.6094 9.33594 12.8281 10.173C12.0469 11.01 11.1042 11.4286 10 11.4286C8.89583 11.4286 7.95312 11.01 7.17188 10.173C6.39062 9.33594 6 8.32589 6 7.14286C6 5.95982 6.39062 4.94978 7.17188 4.11272C7.95312 3.27567 8.89583 2.85714 10 2.85714C11.1042 2.85714 12.0469 3.27567 12.8281 4.11272C13.6094 4.94978 14 5.95982 14 7.14286ZM20 9.65402C20 10.2344 19.8056 10.6752 19.4167 10.9766C19.0278 11.2779 18.5486 11.4286 17.9792 11.4286H16.5833C15.8681 10.5134 14.9479 10.0372 13.8229 10C14.3854 9.12946 14.6667 8.17708 14.6667 7.14286C14.6667 6.92708 14.6493 6.68155 14.6146 6.40625C15.0729 6.57738 15.5347 6.66295 16 6.66295C16.4097 6.66295 16.8229 6.58296 17.2396 6.42299C17.6562 6.26302 17.9948 6.10491 18.2552 5.94866C18.5156 5.79241 18.6667 5.71429 18.7083 5.71429C19.5694 5.71429 20 7.02753 20 9.65402ZM18.6667 2.85714C18.6667 3.64583 18.4062 4.3192 17.8854 4.87723C17.3646 5.43527 16.7361 5.71429 16 5.71429C15.2639 5.71429 14.6354 5.43527 14.1146 4.87723C13.5938 4.3192 13.3333 3.64583 13.3333 2.85714C13.3333 2.06845 13.5938 1.39509 14.1146 0.837054C14.6354 0.279018 15.2639 0 16 0C16.7361 0 17.3646 0.279018 17.8854 0.837054C18.4062 1.39509 18.6667 2.06845 18.6667 2.85714Z" fill="white"/>
</svg>
