<svg width="30" height="24" viewBox="0 0 30 24" fill="none" xmlns="http://www.w3.org/2000/svg">
<path d="M25.218 2.69163C25.2099 2.6758 25.1963 2.66339 25.1798 2.65663C23.2737 1.78207 21.2621 1.15843 19.1955 0.801334C19.1768 0.797844 19.1574 0.800362 19.1401 0.808531C19.1228 0.816699 19.1086 0.830103 19.0994 0.846834C18.8255 1.34398 18.5768 1.85463 18.3544 2.37683C16.1267 2.03868 13.8608 2.03868 11.6331 2.37683C11.4092 1.8533 11.1566 1.34253 10.8763 0.846834C10.8667 0.830466 10.8524 0.817372 10.8353 0.809256C10.8181 0.80114 10.7989 0.79838 10.7801 0.801334C8.71334 1.15768 6.70166 1.78136 4.79575 2.65668C4.77943 2.6636 4.76567 2.67541 4.75635 2.69048C0.944897 8.38238 -0.0992031 13.9343 0.412997 19.4175C0.414438 19.431 0.418567 19.444 0.425138 19.4558C0.431709 19.4676 0.440588 19.478 0.451247 19.4863C2.67062 21.1296 5.15301 22.3839 7.7925 23.1957C7.81108 23.2013 7.83093 23.2011 7.84938 23.195C7.86782 23.189 7.88396 23.1774 7.89565 23.1619C8.46255 22.3906 8.96487 21.5738 9.3975 20.7198C9.40344 20.7081 9.40684 20.6953 9.40746 20.6821C9.40808 20.669 9.40591 20.6559 9.40109 20.6437C9.39628 20.6315 9.38893 20.6204 9.37953 20.6112C9.37013 20.602 9.35888 20.595 9.34655 20.5904C8.55443 20.2874 7.78756 19.922 7.05315 19.4978C7.03981 19.4899 7.0286 19.4789 7.02052 19.4657C7.01244 19.4525 7.00774 19.4375 7.00683 19.4221C7.00591 19.4067 7.00882 19.3912 7.01528 19.3772C7.02175 19.3631 7.03157 19.3508 7.0439 19.3415C7.198 19.226 7.3522 19.1059 7.49935 18.9846C7.51242 18.9739 7.52824 18.967 7.54502 18.9647C7.56181 18.9624 7.57889 18.9649 7.59435 18.9718C12.4058 21.1677 17.6148 21.1677 22.3693 18.9718C22.3848 18.9645 22.4021 18.9617 22.4191 18.9637C22.4362 18.9658 22.4523 18.9726 22.4655 18.9835C22.6127 19.1048 22.7669 19.226 22.9221 19.3415C22.9345 19.3507 22.9445 19.3629 22.951 19.3769C22.9576 19.3909 22.9606 19.4063 22.9598 19.4218C22.959 19.4372 22.9544 19.4523 22.9464 19.4655C22.9384 19.4788 22.9273 19.4898 22.914 19.4978C22.1813 19.9256 21.4137 20.2907 20.6195 20.5893C20.6072 20.594 20.596 20.6012 20.5867 20.6105C20.5773 20.6199 20.5701 20.6311 20.5653 20.6434C20.5606 20.6557 20.5586 20.6689 20.5593 20.6821C20.56 20.6952 20.5635 20.7081 20.5695 20.7198C21.0094 21.569 21.511 22.3848 22.0702 23.1606C22.0816 23.1765 22.0977 23.1884 22.1162 23.1947C22.1347 23.201 22.1547 23.2013 22.1734 23.1956C24.8176 22.3865 27.3043 21.132 29.5265 19.4863C29.5373 19.4784 29.5463 19.4683 29.5529 19.4566C29.5595 19.445 29.5636 19.432 29.5647 19.4187C30.1779 13.0795 28.5381 7.57308 25.218 2.69163ZM10.116 16.0788C8.66745 16.0788 7.47385 14.7495 7.47385 13.1169C7.47385 11.4843 8.6443 10.1548 10.116 10.1548C11.5993 10.1548 12.7813 11.4958 12.7582 13.1168C12.7582 14.7495 11.5877 16.0788 10.116 16.0788ZM19.885 16.0788C18.4365 16.0788 17.2429 14.7495 17.2429 13.1169C17.2429 11.4843 18.4133 10.1548 19.885 10.1548C21.3684 10.1548 22.5504 11.4958 22.5272 13.1168C22.5272 14.7495 21.3684 16.0788 19.885 16.0788Z" fill="white"/>
</svg>
