<svg width="32" height="22" viewBox="0 0 32 22" fill="none" xmlns="http://www.w3.org/2000/svg">
<path d="M30.5281 3.67095C30.1791 2.35706 29.151 1.32229 27.8456 0.971119C25.4795 0.333008 15.9917 0.333008 15.9917 0.333008C15.9917 0.333008 6.5039 0.333008 4.13773 0.971119C2.83234 1.32234 1.80423 2.35706 1.45529 3.67095C0.821289 6.05245 0.821289 11.0212 0.821289 11.0212C0.821289 11.0212 0.821289 15.99 1.45529 18.3715C1.80423 19.6854 2.83234 20.6771 4.13773 21.0282C6.5039 21.6663 15.9917 21.6663 15.9917 21.6663C15.9917 21.6663 25.4795 21.6663 27.8456 21.0282C29.151 20.6771 30.1791 19.6854 30.5281 18.3715C31.1621 15.99 31.1621 11.0212 31.1621 11.0212C31.1621 11.0212 31.1621 6.05245 30.5281 3.67095ZM12.8886 15.5325V6.50995L20.8186 11.0213L12.8886 15.5325Z" fill="white"/>
</svg>
